# xmcd
#
# Track frame offsets:
#	150
#	18728
#	32506
#	41758
#	59750
#	76442
#	93674
#	105882
#	122787
#	142229
#	159463
#	176656
#	201632
#	218049
#	242571
#	257051
#	274135
#	286308
#	304106
#	322375
#
# Disc length: 4549 seconds
#
# Revision: 1
# Processed by: cddbd v1.5.2PL0 Copyright (c) Steve Scherf et al.
# Submitted via: audiograbber 1.83.01
#
DISCID=3611c314
DTITLE=The Blues Band - Be My Guest (Feat. Guest Artists)
DYEAR=2003
DGENRE=Blues
TTITLE0=The Cat
TTITLE1=Big Fine Girl
TTITLE2=Hey Hey Little Girl
TTITLE3=00 00-EE
TTITLE4=Don't Lie To Me
TTITLE5=Big Boss Man
TTITLE6=Bad Penny Blues
TTITLE7=When I Itches I Scratch
TTITLE8=Bad Boy
TTITLE9=Can't Get My Ass In Gear
TTITLE10=Normal Service
TTITLE11=Leaving
TTITLE12=Longing For You Baby
TTITLE13=Fat City
TTITLE14=Let The Good Times Roll
TTITLE15=CC Rider
TTITLE16=Swing Out Dave
TTITLE17=What You Wanted
TTITLE18=Half The Man (Twice The Fool)
TTITLE19=Resting On Jesus
EXTD=
EXTT0=
EXTT1=
EXTT2=
EXTT3=
EXTT4=
EXTT5=
EXTT6=
EXTT7=
EXTT8=
EXTT9=
EXTT10=
EXTT11=
EXTT12=
EXTT13=
EXTT14=
EXTT15=
EXTT16=
EXTT17=
EXTT18=
EXTT19=
PLAYORDER=
